<?xml version="1.0" encoding="utf-8"?><!-- Uploaded to: SVG Repo, www.svgrepo.com, Generator: SVG Repo Mixer Tools -->
<svg fill="#000000" width="800px" height="800px" viewBox="0 0 1024 1024" xmlns="http://www.w3.org/2000/svg">
    <path d="M236.599 336.603V69.124c0-15.559 12.601-28.16 28.16-28.16s28.16 12.601 28.16 28.16v303.319c0 11.311 9.169 20.48 20.48 20.48s20.48-9.169 20.48-20.48V69.124c0-38.181-30.939-69.12-69.12-69.12s-69.12 30.939-69.12 69.12v267.479c0 11.311 9.169 20.48 20.48 20.48s20.48-9.169 20.48-20.48z"/>
    <path d="M333.879 372.443V211.46c0-15.553 12.605-28.16 28.16-28.16s28.16 12.607 28.16 28.16v180.439c0 11.311 9.169 20.48 20.48 20.48s20.48-9.169 20.48-20.48V211.46c0-38.173-30.942-69.12-69.12-69.12s-69.12 30.947-69.12 69.12v160.983c0 11.311 9.169 20.48 20.48 20.48s20.48-9.169 20.48-20.48z"/>
    <path d="M431.159 391.898V140.803c0-15.559 12.601-28.16 28.16-28.16s28.16 12.601 28.16 28.16v257.239c0 11.311 9.169 20.48 20.48 20.48s20.48-9.169 20.48-20.48V140.803c0-38.181-30.939-69.12-69.12-69.12s-69.12 30.939-69.12 69.12v251.095c0 11.311 9.169 20.48 20.48 20.48s20.48-9.169 20.48-20.48z"/>
    <path d="M528.439 390.878V69.127c0-15.559 12.601-28.16 28.16-28.16s28.16 12.601 28.16 28.16v321.751c0 11.311 9.169 20.48 20.48 20.48s20.48-9.169 20.48-20.48V69.127c0-38.181-30.939-69.12-69.12-69.12s-69.12 30.939-69.12 69.12v321.751c0 11.311 9.169 20.48 20.48 20.48s20.48-9.169 20.48-20.48z"/>
    <path d="M625.724 389.853V211.462c0-15.553 12.605-28.16 28.16-28.16 15.549 0 28.16 12.611 28.16 28.16v155.863c0 11.311 9.169 20.48 20.48 20.48s20.48-9.169 20.48-20.48V211.462c0-38.17-30.95-69.12-69.12-69.12-38.178 0-69.12 30.947-69.12 69.12v178.391c0 11.311 9.169 20.48 20.48 20.48s20.48-9.169 20.48-20.48z"/>
    <path d="M723.004 368.348V140.805c0-15.559 12.601-28.16 28.16-28.16 15.553 0 28.16 12.605 28.16 28.16v188.631c0 11.311 9.169 20.48 20.48 20.48s20.48-9.169 20.48-20.48V140.805c0-38.178-30.947-69.12-69.12-69.12-38.181 0-69.12 30.939-69.12 69.12v227.543c0 11.311 9.169 20.48 20.48 20.48s20.48-9.169 20.48-20.48z"/>
    <path d="M507.959 459.063c107.301 0 211.149-24.126 305.695-69.938 28.961-14.031 62.099 9.046 58.683 40.904l-52.194 539.326c-3.348 31.222-29.7 54.894-61.098 54.894h-502.17c-31.402 0-57.756-23.678-61.109-55.105l-52.162-538.905c-3.438-32.068 29.7-55.146 58.662-41.114 94.544 45.812 198.392 69.938 305.694 69.938zm323.629-33.19c-.002.015.022.036-.007.068l.007-.068zm-323.629 74.15c-113.526 0-223.476-25.543-323.553-74.036-.121-.059 52.109 539.012 52.109 539.012 1.11 10.401 9.892 18.291 20.36 18.291h502.17c10.469 0 19.255-7.893 20.35-18.09l52.188-539.258c-100.147 48.539-210.097 74.082-323.622 74.082z"/>
</svg>