<?xml version="1.0" encoding="utf-8"?><!-- Uploaded to: SVG Repo, www.svgrepo.com, Generator: SVG Repo Mixer Tools -->
<svg fill="#000000" width="800px" height="800px" viewBox="0 0 1024 1024" xmlns="http://www.w3.org/2000/svg">
    <path d="M848.896 722.603c33.93 0 61.44-27.51 61.44-61.44v-92.16c0-33.93-27.51-61.44-61.44-61.44H174.08c-33.93 0-61.44 27.51-61.44 61.44v92.16c0 33.93 27.51 61.44 61.44 61.44h674.816zm0 40.96H174.08c-56.551 0-102.4-45.849-102.4-102.4v-92.16c0-56.551 45.849-102.4 102.4-102.4h674.816c56.551 0 102.4 45.849 102.4 102.4v92.16c0 56.551-45.849 102.4-102.4 102.4zm-588.288 40.544v62.648c0 24.112-19.291 43.581-42.998 43.581h-6.164c-23.707 0-42.998-19.469-42.998-43.581V803.84c0-11.311-9.169-20.48-20.48-20.48s-20.48 9.169-20.48 20.48v62.915c0 46.65 37.544 84.541 83.958 84.541h6.164c46.413 0 83.958-37.892 83.958-84.541v-62.648c0-11.311-9.169-20.48-20.48-20.48s-20.48 9.169-20.48 20.48zm593.92 0v62.648c0 24.112-19.291 43.581-42.998 43.581h-6.164c-23.707 0-42.998-19.469-42.998-43.581V803.84c0-11.311-9.169-20.48-20.48-20.48s-20.48 9.169-20.48 20.48v62.915c0 46.65 37.544 84.541 83.958 84.541h6.164c46.413 0 83.958-37.892 83.958-84.541v-62.648c0-11.311-9.169-20.48-20.48-20.48s-20.48 9.169-20.48 20.48z"/>
    <path d="M308.224 615.083c0 31.109-25.211 56.32-56.32 56.32s-56.32-25.211-56.32-56.32 25.211-56.32 56.32-56.32 56.32 25.211 56.32 56.32zm519.168 0c0 31.109-25.211 56.32-56.32 56.32s-56.32-25.211-56.32-56.32 25.211-56.32 56.32-56.32 56.32 25.211 56.32 56.32zm-418.304 20.48h204.8c11.311 0 20.48-9.169 20.48-20.48s-9.169-20.48-20.48-20.48h-204.8c-11.311 0-20.48 9.169-20.48 20.48s9.169 20.48 20.48 20.48zm7.005-436.828v-65.618c0-11.309 9.171-20.48 20.48-20.48h149.832c11.309 0 20.48 9.171 20.48 20.48v65.618c0 11.311 9.169 20.48 20.48 20.48s20.48-9.169 20.48-20.48v-65.618c0-33.931-27.509-61.44-61.44-61.44H436.573c-33.931 0-61.44 27.509-61.44 61.44v65.618c0 11.311 9.169 20.48 20.48 20.48s20.48-9.169 20.48-20.48z"/>
    <path d="M780.288 295.25c0-33.93-27.51-61.44-61.44-61.44h-414.72c-33.93 0-61.44 27.51-61.44 61.44v170.67h537.6V295.25zm-578.56 211.63V295.25c0-56.551 45.849-102.4 102.4-102.4h414.72c56.551 0 102.4 45.849 102.4 102.4v211.63h-619.52z"/>
</svg>