<?xml version="1.0" encoding="utf-8"?><!-- Uploaded to: SVG Repo, www.svgrepo.com, Generator: SVG Repo Mixer Tools -->
<svg fill="#000000" width="800px" height="800px" viewBox="0 0 1024 1024" xmlns="http://www.w3.org/2000/svg"><path d="M225.28 588.065V368.929c0-5.657 4.583-10.24 10.24-10.24h143.36c5.657 0 10.24 4.583 10.24 10.24v219.136c0 11.311 9.169 20.48 20.48 20.48s20.48-9.169 20.48-20.48V368.929c0-28.278-22.922-51.2-51.2-51.2H235.52c-28.278 0-51.2 22.922-51.2 51.2v219.136c0 11.311 9.169 20.48 20.48 20.48s20.48-9.169 20.48-20.48zm446.628-102.78l-.005-.066.005.066zM815.463 311.1l-.003.048.003-.048zm-11.449 160.232l10.244-143.36H660.667l10.244 143.36h133.103zm39.861 16.83c-.988 13.533-12.36 24.13-25.917 24.13H656.965c-13.566 0-24.98-10.621-25.917-24.13l-12.439-174.08c-1.072-14.684 10.474-27.07 25.177-27.07h187.351c14.703 0 26.249 12.387 25.179 27.039l-12.442 174.111z"/><path d="M419.84 982.305c5.657 0 10.24-4.583 10.24-10.24v-337.92c0-5.657-4.583-10.24-10.24-10.24H204.8c-11.309 0-20.48 9.171-20.48 20.48v327.68c0 5.657 4.583 10.24 10.24 10.24h225.28zm0 40.96H194.56c-28.278 0-51.2-22.922-51.2-51.2v-327.68c0-33.931 27.509-61.44 61.44-61.44h215.04c28.278 0 51.2 22.922 51.2 51.2v337.92c0 28.278-22.922 51.2-51.2 51.2zm382.976-531.456v470.016c0 11.309-9.171 20.48-20.48 20.48h-90.112c-11.309 0-20.48-9.171-20.48-20.48V481.569c0-11.311-9.169-20.48-20.48-20.48s-20.48 9.169-20.48 20.48v480.256c0 33.931 27.509 61.44 61.44 61.44h90.112c33.931 0 61.44-27.509 61.44-61.44V491.809c0-11.311-9.169-20.48-20.48-20.48s-20.48 9.169-20.48 20.48zm-464.896-153.6h40.96V39.201c0-32.811-29.218-49.355-57.35-32.483L271.8 36.56c-20.647 12.383-36.279 39.992-36.279 64.081v237.568h40.96V100.641c0-9.7 8.081-23.974 16.39-28.957l45.05-27.033v293.558zm288.154-296.96h222.452L815.253 315.26c-1.363 11.228 6.634 21.436 17.862 22.799s21.436-6.634 22.799-17.862l34.965-287.95v-1.239c0-16.963-13.757-30.72-30.72-30.72h-245.76c-16.963 0-30.72 13.757-30.72 30.72v1.271l35.997 289.005c1.398 11.224 11.63 19.19 22.854 17.792s19.19-11.63 17.792-22.854L626.073 41.249z"/></svg>