<?xml version="1.0" encoding="utf-8"?><!-- Uploaded to: SVG Repo, www.svgrepo.com, Generator: SVG Repo Mixer Tools -->
<svg fill="#000000" width="800px" height="800px" viewBox="0 0 1024 1024" xmlns="http://www.w3.org/2000/svg"><path d="M85.944 901.251L279.275 443.82c12.23-28.957 44.817-35.317 67.027-13.087l253.344 253.334c22.209 22.228 15.859 54.792-13.089 67.019L129.126 944.413c-32.495 13.755-56.91-10.659-43.182-43.161zm484.672-187.896c1.614-.682 1.628-.697 1.468.123-.159.815-.17.785-1.407-.454L317.333 459.69c-1.237-1.238-1.259-1.246-.441-1.406.817-.159.798-.142.114 1.477L131.364 898.998l439.252-185.644zM131.364 898.999l-18.194 7.689c-1.46.618-2.219.799-2.017.799 2.335.006 5.371 1.087 8.007 3.723 2.635 2.635 3.715 5.665 3.721 7.996.001.198.181-.564.794-2.016l7.689-18.191zm369.208-408.821c-11.311 0-20.48-9.169-20.48-20.48V353.791c0-11.311 9.169-20.48 20.48-20.48h115.907c11.311 0 20.48 9.169 20.48 20.48v115.907c0 11.311-9.169 20.48-20.48 20.48H500.572zm95.427-40.96v-74.947h-74.947v74.947h74.947zm243.56-43.692c-3.071-6.927-8.777-12.633-15.701-15.703-34.452-15.273-66.583 16.861-51.303 51.313 3.07 6.924 8.777 12.633 15.693 15.702 34.449 15.279 66.59-16.862 51.311-51.311zm37.443-16.604c30.472 68.706-36.653 135.831-105.365 105.356-16.207-7.192-29.339-20.328-36.526-36.539-30.472-68.706 36.638-135.822 105.348-105.362 16.218 7.19 29.353 20.326 36.544 36.544zM713.013 103.061c16.01-5.336 31.241 9.895 25.905 25.905l-49.172 147.528c-4.814 14.443-23.145 18.771-33.911 8.006l-98.355-98.355c-10.765-10.765-6.438-29.097 8.006-33.911l147.528-49.172zm-103.138 77.552l51.491 51.491 25.743-77.234-77.234 25.743zm-244.071-73.971c64.429 64.429 64.429 168.883.001 233.303-7.999 7.997-7.999 20.965-.002 28.963s20.965 7.999 28.963.002c80.427-80.415 80.427-210.805.001-291.231-7.998-7.998-20.965-7.998-28.963 0s-7.998 20.965 0 28.963zm317.585 551.366c64.429-64.429 168.883-64.429 233.303-.001 7.997 7.999 20.965 7.999 28.963.002s7.999-20.965.002-28.963c-80.415-80.427-210.805-80.427-291.231-.001-7.998 7.998-7.998 20.965 0 28.963s20.965 7.998 28.963 0z"/><path d="M185.585 746.264l98.519 98.519c7.998 7.998 20.965 7.998 28.963 0s7.998-20.965 0-28.963l-98.519-98.519c-7.998-7.998-20.965-7.998-28.963 0s-7.998 20.965 0 28.963z"/></svg>