<?xml version="1.0" encoding="utf-8"?><!-- Uploaded to: SVG Repo, www.svgrepo.com, Generator: SVG Repo Mixer Tools -->
<svg fill="#000000" width="800px" height="800px" viewBox="0 0 1024 1024" xmlns="http://www.w3.org/2000/svg"><path d="M106.544 501.695l385.403-380.262c11.913-11.754 31.079-11.722 42.955.075l382.71 380.14c8.025 7.971 20.992 7.927 28.963-.098s7.927-20.992-.098-28.963l-382.71-380.14c-27.811-27.625-72.687-27.7-100.589-.171L77.775 472.539c-8.051 7.944-8.139 20.911-.194 28.962s20.911 8.139 28.962.194z"/><path d="M783.464 362.551v517.12c0 16.962-13.758 30.72-30.72 30.72h-481.28c-16.962 0-30.72-13.758-30.72-30.72v-517.12c0-11.311-9.169-20.48-20.48-20.48s-20.48 9.169-20.48 20.48v517.12c0 39.583 32.097 71.68 71.68 71.68h481.28c39.583 0 71.68-32.097 71.68-71.68v-517.12c0-11.311-9.169-20.48-20.48-20.48s-20.48 9.169-20.48 20.48z"/><path d="M445.544 922.679v-230.4c0-36.561 29.999-66.56 66.56-66.56s66.56 29.999 66.56 66.56v230.4c0 11.311 9.169 20.48 20.48 20.48s20.48-9.169 20.48-20.48v-230.4c0-59.183-48.337-107.52-107.52-107.52s-107.52 48.337-107.52 107.52v230.4c0 11.311 9.169 20.48 20.48 20.48s20.48-9.169 20.48-20.48z"/></svg>