<?xml version="1.0" encoding="utf-8"?><!-- Uploaded to: SVG Repo, www.svgrepo.com, Generator: SVG Repo Mixer Tools -->
<svg fill="#000000" width="800px" height="800px" viewBox="0 0 1024 1024" xmlns="http://www.w3.org/2000/svg"><path d="M855.808 428.503c71.424-71.424 71.424-187.214.021-258.618l-3.686-3.676c-71.424-71.424-187.214-71.424-258.638 0L166.201 593.513c-71.416 71.425-71.413 187.226.009 258.649l3.656 3.656c71.424 71.424 187.224 71.424 258.647 0l427.295-427.315zm28.963 28.963L457.476 884.781c-87.419 87.419-229.155 87.419-316.574 0l-3.656-3.656c-87.417-87.417-87.421-229.152-.01-316.574l427.305-427.305c87.419-87.419 229.144-87.419 316.543-.02l3.686 3.676c87.419 87.419 87.419 229.144 0 316.564z"/><path d="M350.519 380.235l291.267 291.267c7.998 7.998 20.965 7.998 28.963 0s7.998-20.965 0-28.963L379.482 351.272c-7.998-7.998-20.965-7.998-28.963 0s-7.998 20.965 0 28.963zM181.871 539.999v361.298c0 11.311 9.169 20.48 20.48 20.48s20.48-9.169 20.48-20.48V539.999c0-11.311-9.169-20.48-20.48-20.48s-20.48 9.169-20.48 20.48zm107.52-119.113V928.77c0 11.311 9.169 20.48 20.48 20.48s20.48-9.169 20.48-20.48V420.886c0-11.311-9.169-20.48-20.48-20.48s-20.48 9.169-20.48 20.48z"/><path d="M397.935 425.311V880.1c0 11.311 9.169 20.48 20.48 20.48s20.48-9.169 20.48-20.48V425.311c0-11.311-9.169-20.48-20.48-20.48s-20.48 9.169-20.48 20.48zm106.496 114.688V769.17c0 11.311 9.169 20.48 20.48 20.48s20.48-9.169 20.48-20.48V539.999c0-11.311-9.169-20.48-20.48-20.48s-20.48 9.169-20.48 20.48z"/></svg>