<?xml version="1.0" encoding="utf-8"?><!-- Uploaded to: SVG Repo, www.svgrepo.com, Generator: SVG Repo Mixer Tools -->
<svg fill="#000000" width="800px" height="800px" viewBox="0 0 1024 1024" xmlns="http://www.w3.org/2000/svg"><path d="M708.266 744.581h-377.18v40.96h377.18z"/><path d="M130.055 747.52H71.779c-16.906 0-30.822-13.907-30.822-30.792V204.871c0-16.885 13.917-30.792 30.822-30.792h880.435c16.912 0 30.822 13.903 30.822 30.792v511.857c0 16.889-13.91 30.792-30.822 30.792h-35.553v40.96h35.553c39.528 0 71.782-32.236 71.782-71.752V204.871c0-39.516-32.254-71.752-71.782-71.752H71.779c-39.521 0-71.782 32.239-71.782 71.752v511.857c0 39.513 32.261 71.752 71.782 71.752h58.276v-40.96z"/><path d="M314.805 766.646c0-44.737-36.27-81.009-81.009-81.009-44.73 0-80.998 36.273-80.998 81.009s36.268 81.009 80.998 81.009c44.739 0 81.009-36.272 81.009-81.009zm40.96 0c0 67.358-54.607 121.969-121.969 121.969-67.353 0-121.958-54.613-121.958-121.969s54.605-121.969 121.958-121.969c67.361 0 121.969 54.611 121.969 121.969zm535.331 0c0-44.737-36.27-81.009-81.009-81.009-44.73 0-80.998 36.273-80.998 81.009s36.268 81.009 80.998 81.009c44.739 0 81.009-36.272 81.009-81.009zm40.96 0c0 67.358-54.607 121.969-121.969 121.969-67.353 0-121.958-54.613-121.958-121.969s54.605-121.969 121.958-121.969c67.361 0 121.969 54.611 121.969 121.969zm62.931-292.402H759.805a10.238 10.238 0 01-10.24-10.24V163.839h-40.96v300.165c0 28.278 22.922 51.2 51.2 51.2h235.182v-40.96zm-378.283.171c5.657 0 10.24-4.583 10.24-10.24V266.543c0-5.657-4.583-10.24-10.24-10.24H133.622a10.238 10.238 0 00-10.24 10.24v197.632c0 5.657 4.583 10.24 10.24 10.24h483.082zm0 40.96H133.622c-28.278 0-51.2-22.922-51.2-51.2V266.543c0-28.278 22.922-51.2 51.2-51.2h483.082c28.278 0 51.2 22.922 51.2 51.2v197.632c0 28.278-22.922 51.2-51.2 51.2z"/><path d="M354.685 248.111v239.892h40.96V248.111z"/></svg>